<svg width="24" height="24" viewBox="0 0 24 24" fill="none" xmlns="http://www.w3.org/2000/svg">
<path d="M17.7108 11.8194C17.8741 11.5967 18.187 11.5485 18.4097 11.7118C18.6324 11.875 18.6806 12.1879 18.5173 12.4107L17.7108 11.8194ZM11.2588 7.08957C11.4221 6.86686 11.735 6.81867 11.9577 6.98194C12.1804 7.1452 12.2286 7.4581 12.0653 7.68081L11.2588 7.08957ZM18.5173 12.4107L13.9487 18.6427L13.1422 18.0514L17.7108 11.8194L18.5173 12.4107ZM13.9487 18.6427C12.7403 20.2911 11.271 21.1726 9.79886 21.4218C8.33185 21.6702 6.90251 21.2832 5.79083 20.4682C4.67914 19.6532 3.88001 18.4065 3.67551 16.9327C3.4703 15.4538 3.86884 13.7874 5.0772 12.1391L5.8837 12.7303C4.80779 14.198 4.50122 15.6076 4.66602 16.7953C4.83154 17.9881 5.47754 18.9986 6.38208 19.6617C7.28661 20.3248 8.44457 20.6369 9.63191 20.4359C10.8141 20.2357 12.0662 19.5192 13.1422 18.0514L13.9487 18.6427ZM5.0772 12.1391L11.2583 3.70756L12.0648 4.29879L5.8837 12.7303L5.0772 12.1391ZM11.2583 3.70756C12.0844 2.58059 13.1779 2.04482 14.3014 1.97491C15.4101 1.90592 16.5146 2.29122 17.4003 2.9405C18.2859 3.58977 18.9857 4.52719 19.2535 5.6052C19.5249 6.6977 19.3429 7.90171 18.5168 9.02868L17.7103 8.43744C18.3622 7.54816 18.4823 6.64875 18.283 5.84627C18.08 5.02931 17.5364 4.28019 16.809 3.747C16.0817 3.2138 15.2037 2.9207 14.3635 2.97298C13.5383 3.02433 12.7167 3.40951 12.0648 4.29879L11.2583 3.70756ZM18.5168 9.02868L12.6044 17.0937L11.7979 16.5024L17.7103 8.43744L18.5168 9.02868ZM12.6044 17.0937C11.2184 18.9843 9.02696 19.0247 7.58672 18.0504C6.86758 17.564 6.31809 16.815 6.15245 15.905C5.98543 14.9873 6.21895 13.9644 6.95891 12.955L7.76541 13.5462C7.16166 14.3698 7.02586 15.1192 7.13629 15.7259C7.24809 16.3402 7.62282 16.8676 8.14701 17.2221C9.19346 17.93 10.7652 17.9111 11.7979 16.5024L12.6044 17.0937ZM6.95891 12.955L11.2588 7.08957L12.0653 7.68081L7.76541 13.5462L6.95891 12.955Z" fill="white"/>
</svg>
